<svg width="132" height="66" viewBox="0 0 132 66" fill="none" xmlns="http://www.w3.org/2000/svg">
<path d="M1.54474 34.5824V31.0135C3.59257 31.0135 5.01302 30.6051 5.80611 29.7884C6.5992 28.9716 6.99574 27.6518 6.99574 25.8288V21.9048C6.99574 19.715 7.29759 17.9631 7.90128 16.6491C8.51681 15.3234 9.36908 14.3232 10.4581 13.6484C11.5589 12.9737 12.861 12.5239 14.3643 12.299C15.8677 12.0741 17.513 11.9616 19.3004 11.9616V17.608C17.9036 17.608 16.8383 17.7914 16.1044 18.1584C15.3823 18.5135 14.8911 19.0698 14.6307 19.8274C14.3703 20.5732 14.2401 21.5201 14.2401 22.6683V27.853C14.2401 28.7526 14.0743 29.6108 13.7429 30.4276C13.4115 31.2325 12.7959 31.9486 11.8963 32.576C10.9967 33.1915 9.71236 33.6828 8.04332 34.0497C6.37429 34.4048 4.2081 34.5824 1.54474 34.5824ZM19.3004 56.9013C17.513 56.9013 15.8677 56.7888 14.3643 56.5639C12.861 56.339 11.5589 55.8892 10.4581 55.2145C9.36908 54.5398 8.51681 53.5395 7.90128 52.2138C7.29759 50.8999 6.99574 49.148 6.99574 46.9581V43.0163C6.99574 41.1934 6.5992 39.8736 5.80611 39.0568C5.01302 38.2401 3.59257 37.8317 1.54474 37.8317V34.2628C4.2081 34.2628 6.37429 34.4463 8.04332 34.8132C9.71236 35.1683 10.9967 35.6596 11.8963 36.2869C12.7959 36.9025 13.4115 37.6186 13.7429 38.4354C14.0743 39.2403 14.2401 40.0985 14.2401 41.0099V46.1946C14.2401 47.331 14.3703 48.272 14.6307 49.0178C14.8911 49.7753 15.3823 50.3317 16.1044 50.6868C16.8383 51.0537 17.9036 51.2372 19.3004 51.2372V56.9013ZM1.54474 37.8317V31.0135H7.91903V37.8317H1.54474ZM24.9512 37.5831V31.3331L49.9512 20.3246V27.5156L32.8347 34.3871L33.0655 34.0142V34.902L32.8347 34.5291L49.9512 41.4006V48.5916L24.9512 37.5831ZM73.2999 10.9318L61.5811 54.4688H55.0648L66.7836 10.9318H73.2999ZM103.418 37.5831L78.418 48.5916V41.4006L95.5344 34.5291L95.3036 34.902V34.0142L95.5344 34.3871L78.418 27.5156V20.3246L103.418 31.3331V37.5831ZM126.82 34.2628V37.8317C124.784 37.8317 123.364 38.2401 122.559 39.0568C121.766 39.8736 121.369 41.1934 121.369 43.0163V46.9581C121.369 49.148 121.061 50.8999 120.446 52.2138C119.842 53.5395 118.99 54.5398 117.889 55.2145C116.8 55.8892 115.504 56.339 114 56.5639C112.509 56.7888 110.864 56.9013 109.064 56.9013V51.2372C110.461 51.2372 111.52 51.0537 112.243 50.6868C112.976 50.3317 113.474 49.7753 113.734 49.0178C113.994 48.272 114.125 47.331 114.125 46.1946V41.0099C114.125 40.0985 114.29 39.2403 114.622 38.4354C114.953 37.6186 115.569 36.9025 116.468 36.2869C117.368 35.6596 118.652 35.1683 120.321 34.8132C121.99 34.4463 124.157 34.2628 126.82 34.2628ZM109.064 11.9616C110.864 11.9616 112.509 12.0741 114 12.299C115.504 12.5239 116.8 12.9737 117.889 13.6484C118.99 14.3232 119.842 15.3234 120.446 16.6491C121.061 17.9631 121.369 19.715 121.369 21.9048V25.8288C121.369 27.6518 121.766 28.9716 122.559 29.7884C123.364 30.6051 124.784 31.0135 126.82 31.0135V34.5824C124.157 34.5824 121.99 34.4048 120.321 34.0497C118.652 33.6828 117.368 33.1915 116.468 32.576C115.569 31.9486 114.953 31.2325 114.622 30.4276C114.29 29.6108 114.125 28.7526 114.125 27.853V22.6683C114.125 21.5201 113.994 20.5732 113.734 19.8274C113.474 19.0698 112.976 18.5135 112.243 18.1584C111.52 17.7914 110.461 17.608 109.064 17.608V11.9616ZM126.82 31.0135V37.8317H120.446V31.0135H126.82Z" fill="#D9D9D9"/>
</svg>
